<svg xmlns="http://www.w3.org/2000/svg" viewBox="0 0 64 64" fill="#fff" stroke="#fff" stroke-width="0.5"><path d="M17.6563 4c-1.336 0-2.5899.5195-3.5352 1.4648l-8.6563 8.6563C4.5195 15.0664 4 16.3203 4 17.6562V57c0 1.6523 1.3477 3 3 3h40c1.6523 0 3-1.3477 3-3V46h8c1.1016 0 2-.8984 2-2V24c0-1.1016-.8984-2-2-2h-8V7c0-1.6523-1.3477-3-3-3zM18 6h29c.5508 0 1 .4492 1 1v15H16c-1.1016 0-2 .8984-2 2v20c0 1.1016.8984 2 2 2h32v11c0 .5508-.4492 1-1 1H7c-.5508 0-1-.4492-1-1V18h9c1.6523 0 3-1.3477 3-3zm-2 .5V15c0 .5508-.4492 1-1 1H6.5a3.0354 3.0354 0 01.379-.4648l8.6562-8.6563A3.0354 3.0354 0 0116 6.5zM16 24h42v20H16zm9 4c-.5547 0-1 .4492-1 1v10c0 .5508.4453 1 1 1s1-.4492 1-1v-3h3c1.6523 0 3-1.3477 3-3v-2c0-1.6523-1.3477-3-3-3zm10 0c-.5547 0-1 .4492-1 1v10c0 .5508.4453 1 1 1h3c2.207 0 4-1.793 4-4v-4c0-2.207-1.793-4-4-4zm10 0c-.5547 0-1 .4492-1 1v10c0 .5508.4453 1 1 1s1-.4492 1-1v-3h3c.5547 0 1-.4492 1-1s-.4453-1-1-1h-3v-4h4c.5547 0 1-.4492 1-1s-.4453-1-1-1zm-19 2h3c.5508 0 1 .4492 1 1v2c0 .5508-.4492 1-1 1h-3zm10 0h2c1.1016 0 2 .8984 2 2v4c0 1.1016-.8984 2-2 2h-2zM9 52c-.5547 0-1 .4492-1 1v2c0 .5508.4453 1 1 1s1-.4492 1-1v-2c0-.5508-.4453-1-1-1zm5 0c-.5547 0-1 .4492-1 1v2c0 .5508.4453 1 1 1s1-.4492 1-1v-2c0-.5508-.4453-1-1-1zm5 0c-.5547 0-1 .4492-1 1v2c0 .5508.4453 1 1 1s1-.4492 1-1v-2c0-.5508-.4453-1-1-1zm5 0c-.5547 0-1 .4492-1 1v2c0 .5508.4453 1 1 1s1-.4492 1-1v-2c0-.5508-.4453-1-1-1zm5 0c-.5547 0-1 .4492-1 1v2c0 .5508.4453 1 1 1s1-.4492 1-1v-2c0-.5508-.4453-1-1-1zm5 0c-.5547 0-1 .4492-1 1v2c0 .5508.4453 1 1 1s1-.4492 1-1v-2c0-.5508-.4453-1-1-1zm5 0c-.5547 0-1 .4492-1 1v2c0 .5508.4453 1 1 1s1-.4492 1-1v-2c0-.5508-.4453-1-1-1zm5 0c-.5547 0-1 .4492-1 1v2c0 .5508.4453 1 1 1s1-.4492 1-1v-2c0-.5508-.4453-1-1-1z"/></svg>
